<svg xmlns="http://www.w3.org/2000/svg" width="16" height="16" viewBox="0 0 16 16" fill="none">
  <path d="M7.99994 16C5.67994 16 3.86279 12.4857 3.86279 8C3.86279 3.51429 5.67994 0 7.99994 0C10.3199 0 12.1371 3.51429 12.1371 8C12.1371 12.4857 10.3199 16 7.99994 16ZM7.99994 1.14286C6.58394 1.14286 5.00565 3.95886 5.00565 8C5.00565 12.0411 6.58394 14.8571 7.99994 14.8571C9.41593 14.8571 10.9942 12.0411 10.9942 8C10.9942 3.95886 9.41593 1.14286 7.99994 1.14286Z" fill="#0078DB"/>
  <path d="M8 16C6.41775 16 4.87103 15.5308 3.55544 14.6518C2.23985 13.7727 1.21447 12.5233 0.608967 11.0615C0.00346626 9.59966 -0.15496 7.99113 0.153721 6.43928C0.462403 4.88743 1.22433 3.46197 2.34315 2.34315C3.46197 1.22433 4.88743 0.462403 6.43928 0.153721C7.99113 -0.15496 9.59966 0.00346626 11.0615 0.608967C12.5233 1.21447 13.7727 2.23985 14.6518 3.55544C15.5308 4.87103 16 6.41775 16 8C15.9976 10.121 15.1539 12.1544 13.6542 13.6542C12.1544 15.1539 10.121 15.9976 8 16V16ZM8 1.14286C6.64379 1.14286 5.31803 1.54502 4.19038 2.2985C3.06273 3.05197 2.18383 4.12291 1.66483 5.37589C1.14583 6.62887 1.01003 8.00761 1.27462 9.33776C1.5392 10.6679 2.19228 11.8897 3.15127 12.8487C4.11026 13.8077 5.33209 14.4608 6.66224 14.7254C7.9924 14.99 9.37114 14.8542 10.6241 14.3352C11.8771 13.8162 12.948 12.9373 13.7015 11.8096C14.455 10.682 14.8571 9.35622 14.8571 8C14.8553 6.18193 14.1323 4.43885 12.8467 3.15328C11.5612 1.86771 9.81807 1.14468 8 1.14286V1.14286Z" fill="#0078DB"/>
  <path d="M15.4284 7.42859H0.571289V8.57145H15.4284V7.42859Z" fill="#0078DB"/>
  <path d="M8.57157 0.571411H7.42871V15.4285H8.57157V0.571411Z" fill="#0078DB"/>
</svg>
