<svg xmlns="http://www.w3.org/2000/svg" width="28" height="28" viewBox="0 0 28 28" fill="none">
  <path d="M14.0003 28C9.94025 28 6.76025 21.85 6.76025 14C6.76025 6.15 9.94025 0 14.0003 0C18.0603 0 21.2403 6.15 21.2403 14C21.2403 21.85 18.0603 28 14.0003 28ZM14.0003 2C11.5223 2 8.76025 6.928 8.76025 14C8.76025 21.072 11.5223 26 14.0003 26C16.4783 26 19.2403 21.072 19.2403 14C19.2403 6.928 16.4783 2 14.0003 2Z" fill="#0EA79C"/>
  <path d="M14 28C11.2311 28 8.52431 27.1789 6.22202 25.6406C3.91973 24.1022 2.12532 21.9157 1.06569 19.3576C0.00606596 16.7994 -0.271181 13.9845 0.269012 11.2687C0.809205 8.55301 2.14258 6.05845 4.10051 4.10051C6.05845 2.14258 8.55301 0.809205 11.2687 0.269012C13.9845 -0.271181 16.7994 0.00606596 19.3576 1.06569C21.9157 2.12532 24.1022 3.91973 25.6406 6.22202C27.1789 8.52431 28 11.2311 28 14C27.9958 17.7117 26.5194 21.2702 23.8948 23.8948C21.2702 26.5194 17.7117 27.9958 14 28V28ZM14 2.00001C11.6266 2.00001 9.30655 2.70379 7.33316 4.02237C5.35977 5.34095 3.8217 7.21509 2.91345 9.4078C2.0052 11.6005 1.76756 14.0133 2.23058 16.3411C2.69361 18.6689 3.83649 20.8071 5.51472 22.4853C7.19295 24.1635 9.33115 25.3064 11.6589 25.7694C13.9867 26.2324 16.3995 25.9948 18.5922 25.0866C20.7849 24.1783 22.6591 22.6402 23.9776 20.6668C25.2962 18.6935 26 16.3734 26 14C25.9968 10.8184 24.7315 7.76798 22.4818 5.51823C20.232 3.26848 17.1816 2.00318 14 2.00001V2.00001Z" fill="#0EA79C"/>
  <path d="M27 13H1V15H27V13Z" fill="#0EA79C"/>
  <path d="M15 1H13V27H15V1Z" fill="#0EA79C"/>
</svg>