<svg width="16" height="16" viewBox="0 0 16 16" fill="none" xmlns="http://www.w3.org/2000/svg">
<path d="M8 16C5.68 16 3.86285 12.4857 3.86285 8C3.86285 3.51429 5.68 0 8 0C10.32 0 12.1371 3.51429 12.1371 8C12.1371 12.4857 10.32 16 8 16ZM8 1.14286C6.584 1.14286 5.00571 3.95886 5.00571 8C5.00571 12.0411 6.584 14.8571 8 14.8571C9.416 14.8571 10.9943 12.0411 10.9943 8C10.9943 3.95886 9.416 1.14286 8 1.14286Z" fill="black"/>
<path d="M8 16C6.41775 16 4.87103 15.5308 3.55544 14.6518C2.23985 13.7727 1.21447 12.5233 0.608967 11.0615C0.00346627 9.59966 -0.15496 7.99113 0.153721 6.43928C0.462403 4.88743 1.22433 3.46197 2.34315 2.34315C3.46197 1.22433 4.88743 0.462403 6.43928 0.153721C7.99113 -0.15496 9.59966 0.00346627 11.0615 0.608967C12.5233 1.21447 13.7727 2.23985 14.6518 3.55544C15.5308 4.87103 16 6.41775 16 8C15.9976 10.121 15.1539 12.1544 13.6542 13.6542C12.1544 15.1539 10.121 15.9976 8 16ZM8 1.14286C6.64379 1.14286 5.31803 1.54502 4.19038 2.2985C3.06273 3.05197 2.18383 4.12291 1.66483 5.37589C1.14583 6.62887 1.01003 8.00761 1.27462 9.33776C1.5392 10.6679 2.19228 11.8897 3.15127 12.8487C4.11026 13.8077 5.33209 14.4608 6.66224 14.7254C7.9924 14.99 9.37114 14.8542 10.6241 14.3352C11.8771 13.8162 12.948 12.9373 13.7015 11.8096C14.455 10.682 14.8571 9.35622 14.8571 8C14.8553 6.18193 14.1323 4.43885 12.8467 3.15328C11.5612 1.86771 9.81807 1.14468 8 1.14286Z" fill="black"/>
<path d="M15.4285 7.42847H0.571411V8.57132H15.4285V7.42847Z" fill="black"/>
<path d="M8.57145 0.571533H7.42859V15.4287H8.57145V0.571533Z" fill="black"/>
</svg>
