<svg width="16" height="16" viewBox="0 0 16 16" fill="none" xmlns="http://www.w3.org/2000/svg">
<path fill-rule="evenodd" clip-rule="evenodd" d="M9.10752 7.35379H13.846C14.1537 7.35379 14.246 7.01533 13.9999 6.76917L12.4922 5.23072L15.2614 2.43074C15.4153 2.2769 15.4153 1.99998 15.2614 1.84613L14.1229 0.707679C13.9691 0.584603 13.7229 0.584603 13.5383 0.738448L10.7691 3.50766L9.19983 1.99998C8.95367 1.75382 8.61521 1.84613 8.61521 2.15382V6.89225C8.61521 7.10763 8.89213 7.35379 9.10752 7.35379ZM6.89233 8.6154H2.15383C1.84613 8.6154 1.75383 8.95386 1.99998 9.20001L3.50769 10.7385L0.738432 13.5384C0.584585 13.6923 0.584585 13.9692 0.738432 14.1231L1.8769 15.2615C2.03075 15.4153 2.27691 15.4153 2.46152 15.2615L5.26155 12.4615L6.83079 13.9692C7.04618 14.2461 7.38464 14.1538 7.38464 13.8461V9.13847C7.38464 8.92309 7.10772 8.6154 6.89233 8.6154Z" fill="#0176D3"/>
</svg>
