<svg width="13" height="13" viewBox="0 0 13 13" fill="none" xmlns="http://www.w3.org/2000/svg">
<path fill-rule="evenodd" clip-rule="evenodd" d="M12.573 0H7.43074C7.21535 0 6.99997 0.134615 6.99997 0.349998V1.15769C6.99997 1.37307 7.18843 1.61538 7.43074 1.61538H9.55765C9.79996 1.61538 9.93457 1.88461 9.74611 2.04614L5.16921 6.62304C5.00767 6.78458 5.00767 7.02689 5.16921 7.18843L5.73459 7.75381C5.89613 7.91534 6.13843 7.91534 6.29997 7.75381L10.8769 3.17691C11.0384 3.01537 11.3076 3.12306 11.3076 3.36537V5.49228C11.3076 5.70766 11.523 5.94997 11.7384 5.94997H12.5192C12.7346 5.94997 12.923 5.70766 12.923 5.49228V0.376921C12.923 0.134615 12.7884 0 12.573 0V0ZM9.23458 6.32693L8.3192 7.26923C8.15766 7.43077 8.07689 7.61923 8.07689 7.83461V10.9038C8.07689 11.1192 7.88843 11.3077 7.67305 11.3077H2.01922C1.80384 11.3077 1.61538 11.1192 1.61538 10.9038V5.25001C1.61538 5.03463 1.80384 4.84617 2.01922 4.84617H5.11537C5.33075 4.84617 5.54613 4.7654 5.68075 4.60386L6.59613 3.68848C6.75767 3.52694 6.64997 3.23079 6.40767 3.23079H1.07692C0.484614 3.23079 0 3.7154 0 4.30771V11.8461C0 12.4384 0.484614 12.923 1.07692 12.923H8.61535C9.20766 12.923 9.69227 12.4384 9.69227 11.8461V6.51539C9.69227 6.27308 9.39612 6.16539 9.23458 6.32693Z" fill="#0176D3"/>
</svg>
