<svg width="16" height="16" viewBox="0 0 16 16" fill="none" xmlns="http://www.w3.org/2000/svg">
<path fill-rule="evenodd" clip-rule="evenodd" d="M15.0153 0.615356H10.246C9.93833 0.615356 9.84602 0.892277 10.0922 1.13843L11.5999 2.64611L8.83064 5.41532C8.67679 5.56916 8.67679 5.81531 8.83064 5.99993L9.9691 7.13838C10.1229 7.29223 10.3691 7.29223 10.5537 7.13838L13.3537 4.3384L14.8614 5.84608C15.1076 6.09224 15.3845 5.99993 15.3845 5.69224V0.953815C15.3845 0.769201 15.1999 0.615356 15.0153 0.615356ZM1.07677 15.3846H5.81524C6.12294 15.3846 6.21524 15.0461 5.96909 14.8L4.46139 13.2615L7.23063 10.4616C7.38448 10.3077 7.38448 10.0308 7.23063 9.87694L6.09217 8.73849C5.93832 8.58465 5.69217 8.58465 5.50755 8.73849L2.73831 11.5077L1.19985 10C0.922927 9.75387 0.615234 9.84617 0.615234 10.1539V14.8923C0.615234 15.1077 0.861389 15.3846 1.07677 15.3846Z" fill="#0176D3"/>
</svg>
