<svg xmlns="http://www.w3.org/2000/svg" width="14" height="14" viewBox="0 0 14 14" fill="none">
  <path d="M7 1C8.18669 1 9.34673 1.35189 10.3334 2.01118C11.3201 2.67047 12.0892 3.60754 12.5433 4.7039C12.9974 5.80026 13.1162 7.00666 12.8847 8.17054C12.6532 9.33443 12.0818 10.4035 11.2426 11.2426C10.4035 12.0818 9.33443 12.6532 8.17054 12.8847C7.00666 13.1162 5.80026 12.9974 4.7039 12.5433C3.60755 12.0892 2.67047 11.3201 2.01119 10.3334C1.3519 9.34673 1 8.18669 1 7C1 5.4087 1.63214 3.88258 2.75736 2.75736C3.88258 1.63214 5.4087 1 7 1V1ZM7 0C5.61553 0 4.26216 0.410543 3.11101 1.17971C1.95987 1.94888 1.06266 3.04213 0.532846 4.32122C0.00303298 5.6003 -0.13559 7.00777 0.134506 8.36563C0.404603 9.7235 1.07129 10.9708 2.05026 11.9497C3.02922 12.9287 4.2765 13.5954 5.63437 13.8655C6.99224 14.1356 8.3997 13.997 9.67879 13.4672C10.9579 12.9373 12.0511 12.0401 12.8203 10.889C13.5895 9.73785 14 8.38447 14 7C14 5.14348 13.2625 3.36301 11.9497 2.05025C10.637 0.737498 8.85652 0 7 0V0Z" fill="#0176D3"/>
  <path d="M8.63922 9.79004H7.77922V6.30004C7.77922 6.16478 7.72549 6.03506 7.62984 5.93941C7.5342 5.84377 7.40448 5.79004 7.26922 5.79004H5.70922C5.57396 5.79004 5.44424 5.84377 5.34859 5.93941C5.25295 6.03506 5.19922 6.16478 5.19922 6.30004C5.19921 6.36655 5.21246 6.4324 5.23821 6.49372C5.26396 6.55504 5.30169 6.61061 5.34918 6.65718C5.39668 6.70374 5.45298 6.74036 5.5148 6.76489C5.57663 6.78942 5.64272 6.80137 5.70922 6.80004H6.54922V9.80004H5.70922C5.64272 9.79871 5.57663 9.81066 5.5148 9.83519C5.45298 9.85972 5.39668 9.89634 5.34918 9.9429C5.30169 9.98946 5.26396 10.045 5.23821 10.1064C5.21246 10.1677 5.19921 10.2335 5.19922 10.3C5.19922 10.4353 5.25295 10.565 5.34859 10.6607C5.44424 10.7563 5.57396 10.81 5.70922 10.81H8.63922C8.70573 10.8101 8.77158 10.7968 8.8329 10.771C8.89422 10.7453 8.94979 10.7076 8.99636 10.6601C9.04292 10.6126 9.07954 10.5563 9.10407 10.4945C9.1286 10.4326 9.14055 10.3665 9.13922 10.3C9.14055 10.2335 9.1286 10.1674 9.10407 10.1056C9.07954 10.0438 9.04292 9.9875 8.99636 9.94C8.94979 9.89251 8.89422 9.85478 8.8329 9.82903C8.77158 9.80328 8.70573 9.79003 8.63922 9.79004V9.79004Z" fill="#0176D3"/>
  <path d="M6.94961 4.74004C7.41905 4.74004 7.79961 4.35948 7.79961 3.89004C7.79961 3.4206 7.41905 3.04004 6.94961 3.04004C6.48017 3.04004 6.09961 3.4206 6.09961 3.89004C6.09961 4.35948 6.48017 4.74004 6.94961 4.74004Z" fill="#0176D3"/>
</svg>