<svg xmlns="http://www.w3.org/2000/svg" width="14" height="14" viewBox="0 0 14 14" fill="none">
<path fill-rule="evenodd" clip-rule="evenodd" d="M7.00005 0.538452C5.06159 0.538452 3.47313 2.12691 3.47313 4.06538V5.24999H3.28467C2.31544 5.24999 1.53467 6.03076 1.53467 6.99999V12.0885C1.53467 12.8423 2.1539 13.4615 2.90774 13.4615H11.1193C11.8731 13.4615 12.4924 12.8423 12.4924 12.0885V6.99999C12.4924 6.03076 11.7116 5.24999 10.7424 5.24999H10.5539V4.06538C10.5539 2.12691 8.96544 0.538452 7.02698 0.538452H7.00005ZM9.34236 5.24999V4.06538C9.34236 2.77307 8.29236 1.72307 7.00005 1.72307C5.70774 1.72307 4.65774 2.77307 4.65774 4.06538V5.24999H9.36928H9.34236ZM2.69236 6.99999C2.69236 6.67691 2.96159 6.40768 3.28467 6.40768H10.7154C11.0385 6.40768 11.3077 6.67691 11.3077 6.99999V12.0885C11.3077 12.1961 11.227 12.2769 11.1193 12.2769H2.88082C2.77313 12.2769 2.69236 12.1961 2.69236 12.0885V6.99999Z" fill="#92400E"/>
</svg>
