<svg xmlns="http://www.w3.org/2000/svg" width="27" height="29" viewBox="0 0 27 29" fill="none">
  <path fill-rule="evenodd" clip-rule="evenodd" d="M17.6209 2.8812C16.4161 1.71 14.4961 1.71 13.2913 2.8812L1.7425 14.2092C1.3393 14.598 0.700901 14.598 0.297701 14.2092C-0.091099 13.83 -0.100699 13.206 0.278501 12.8124C0.283301 12.8076 0.292901 12.798 0.297701 12.7932L11.8465 1.4652C13.8577 -0.4884 17.0545 -0.4884 19.0657 1.4652C20.1985 2.5692 20.7361 4.1484 20.5105 5.7132C22.0945 5.4876 23.6977 6.0108 24.8401 7.1292L24.8977 7.1868C26.8513 9.0876 26.8945 12.2124 24.9937 14.1708C24.9601 14.2044 24.9313 14.238 24.8977 14.2668L14.4529 24.51C14.3233 24.6348 14.3185 24.846 14.4481 24.9756C14.4481 24.9756 14.4481 24.9756 14.4529 24.9804L16.5985 27.0828C16.9873 27.462 16.9969 28.086 16.6177 28.4796C16.6129 28.4844 16.6033 28.494 16.5985 28.4988C16.1953 28.8876 15.5569 28.8876 15.1537 28.4988L13.0081 26.3964C12.0961 25.5084 12.0769 24.0492 12.9601 23.1372C12.9745 23.1228 12.9889 23.1036 13.0081 23.0892L23.4529 12.846C24.6241 11.7036 24.6529 9.8268 23.5105 8.6556C23.4913 8.6364 23.4721 8.6172 23.4529 8.598L23.3953 8.5404C22.1905 7.3692 20.2753 7.3644 19.0657 8.5404L10.4593 16.9788L10.3441 17.0988C9.9409 17.4924 9.3025 17.4924 8.8993 17.0988C8.5105 16.7196 8.5009 16.0956 8.8801 15.702C8.8849 15.6972 8.8945 15.6876 8.8993 15.6828L17.6257 7.1244C18.7969 5.982 18.8209 4.1052 17.6737 2.934C17.6545 2.9148 17.6401 2.9004 17.6209 2.8812ZM16.1761 5.7132C16.5649 5.334 16.5745 4.71 16.1953 4.3164C16.1905 4.3116 16.1809 4.302 16.1761 4.2972C15.7729 3.9036 15.1345 3.9036 14.7313 4.2972L6.1873 12.6732C4.2337 14.574 4.1905 17.6988 6.0913 19.6572C6.1249 19.6908 6.1537 19.7244 6.1873 19.7532C8.1985 21.7068 11.3953 21.7068 13.4065 19.7532L21.9505 11.3772C22.3393 10.998 22.3489 10.374 21.9697 9.9804C21.9649 9.9756 21.9553 9.966 21.9505 9.9612C21.5473 9.5676 20.9089 9.5676 20.5057 9.9612L11.9617 18.3372C10.7569 19.5084 8.8369 19.5084 7.6321 18.3372C6.4609 17.1948 6.4321 15.318 7.5745 14.1468C7.5937 14.1276 7.6129 14.1084 7.6321 14.0892L16.1761 5.7132Z" fill="#BA01FF"/>
</svg>