<svg width="13" height="11" viewBox="0 0 13 11" fill="none" xmlns="http://www.w3.org/2000/svg">
<path fill-rule="evenodd" clip-rule="evenodd" d="M0.0269231 10.341L1.21154 5.95258H6.21923C6.35385 5.95258 6.48846 5.81796 6.48846 5.68335V5.14489C6.48846 5.01027 6.35385 4.87566 6.21923 4.87566H1.21154L0.0538462 0.567964C0.0269231 0.514118 0 0.433349 0 0.352579C0 0.164118 0.188462 -0.0243438 0.403846 0.00257925C0.457692 0.00257925 0.484615 0.0295023 0.538462 0.0295023L12.6538 5.01027C12.8154 5.06412 12.9231 5.22566 12.9231 5.3872C12.9231 5.54873 12.8154 5.68335 12.6808 5.73719L0.538462 10.8526C0.484615 10.8795 0.430769 10.8795 0.376923 10.8795C0.161538 10.8526 0 10.691 0 10.4757C0 10.4218 0 10.3949 0.0269231 10.341Z" fill="white"/>
</svg>
