<svg xmlns="http://www.w3.org/2000/svg" width="14" height="14" viewBox="0 0 14 14" fill="none">
<path d="M14 0C13.859 2.54405 12.943 5.05293 11.2529 7.14355C11.7571 9.07041 11.2853 11.1648 9.82031 12.6299C9.16508 13.2851 8.3837 13.7405 7.54785 14C7.91767 12.808 7.88616 11.5048 7.45898 10.2979C7.33297 10.3659 7.206 10.4328 7.07812 10.4961C6.98198 10.5437 6.88522 10.5897 6.78809 10.6348C6.0361 10.346 5.3263 9.89674 4.71484 9.28516C4.10332 8.6737 3.65395 7.96396 3.36523 7.21191C3.4102 7.11476 3.45621 7.01791 3.50391 6.92188C3.56719 6.79394 3.63414 6.66708 3.70215 6.54102C2.49523 6.11391 1.19204 6.08227 0 6.45215C0.259446 5.61626 0.714908 4.83491 1.37012 4.17969C2.83514 2.7146 4.92965 2.2428 6.85645 2.74707C8.94713 1.0569 11.4559 0.140962 14 0ZM2.73145 8.88965C2.99763 9.3761 3.3371 9.83508 3.75098 10.249C4.16487 10.6628 4.62395 11.0024 5.11035 11.2686C5.0989 11.272 5.08762 11.2759 5.07617 11.2793C4.14583 11.5535 3.18958 11.7183 2.22852 11.7715C2.2818 10.8104 2.44651 9.85423 2.7207 8.92383C2.72413 8.91236 2.72802 8.90111 2.73145 8.88965ZM11.1318 2.86816C10.6546 2.391 9.88062 2.39111 9.40332 2.86816C8.92603 3.34552 8.92603 4.11945 9.40332 4.59668C9.88061 5.074 10.6546 5.07402 11.1318 4.59668C11.6089 4.11945 11.609 3.34546 11.1318 2.86816Z" fill="black"/>
</svg>