<svg xmlns="http://www.w3.org/2000/svg" width="28" height="28" viewBox="0 0 28 28" fill="none">
<path d="M26.25 1.75C26.0033 6.20193 24.4009 10.5925 21.4434 14.251C22.3257 17.6228 21.5001 21.2887 18.9365 23.8525C17.7897 24.9994 16.421 25.7959 14.958 26.25C15.6053 24.164 15.5513 21.8837 14.8037 19.7715C14.5831 19.8906 14.3615 20.0074 14.1377 20.1182C13.9691 20.2017 13.7993 20.2824 13.6289 20.3613C12.3129 19.856 11.071 19.0693 10.001 17.999C8.93081 16.929 8.14393 15.6872 7.63867 14.3711C7.71752 14.2007 7.79819 14.0307 7.88184 13.8623C7.9926 13.6384 8.10946 13.417 8.22852 13.1963C6.11633 12.4488 3.83612 12.3946 1.75 13.042C2.204 11.5789 3.00065 10.2103 4.14746 9.06348C6.71123 6.49983 10.3773 5.67518 13.749 6.55762C17.4077 3.59982 21.7978 1.99668 26.25 1.75ZM6.53027 17.3057C6.99615 18.1572 7.59002 18.961 8.31445 19.6855C9.03891 20.4099 9.84294 21.0038 10.6943 21.4697C10.6739 21.4758 10.6533 21.4832 10.6328 21.4893C9.00484 21.9691 7.33213 22.2565 5.65039 22.3496C5.74365 20.6679 6.03093 18.9953 6.51074 17.3672C6.51685 17.3467 6.52417 17.3262 6.53027 17.3057ZM21.2305 6.76953C20.3952 5.93438 19.0403 5.93438 18.2051 6.76953C17.3701 7.60477 17.3703 8.95882 18.2051 9.79395C19.0403 10.6293 20.3952 10.6293 21.2305 9.79395C22.0654 8.95879 22.0656 7.6048 21.2305 6.76953Z" fill="#2080C0"/>
</svg>