<svg width="16" height="16" viewBox="0 0 16 16" fill="none" xmlns="http://www.w3.org/2000/svg">
<path d="M15 1C14.859 3.54405 13.943 6.05293 12.2529 8.14355C12.7571 10.0704 12.2853 12.1648 10.8203 13.6299C10.1651 14.2851 9.3837 14.7405 8.54785 15C8.91767 13.808 8.88616 12.5048 8.45898 11.2979C8.33297 11.3659 8.206 11.4328 8.07812 11.4961C7.98198 11.5437 7.88522 11.5897 7.78809 11.6348C7.0361 11.346 6.3263 10.8967 5.71484 10.2852C5.10332 9.6737 4.65395 8.96396 4.36523 8.21191C4.4102 8.11476 4.45621 8.01791 4.50391 7.92188C4.56719 7.79394 4.63414 7.66708 4.70215 7.54102C3.49523 7.11391 2.19204 7.08227 1 7.45215C1.25945 6.61626 1.71491 5.83491 2.37012 5.17969C3.83514 3.7146 5.92965 3.2428 7.85645 3.74707C9.94713 2.0569 12.4559 1.14096 15 1ZM3.73145 9.88965C3.99763 10.3761 4.3371 10.8351 4.75098 11.249C5.16487 11.6628 5.62395 12.0024 6.11035 12.2686C6.0989 12.272 6.08762 12.2759 6.07617 12.2793C5.14583 12.5535 4.18958 12.7183 3.22852 12.7715C3.2818 11.8104 3.44651 10.8542 3.7207 9.92383C3.72413 9.91236 3.72802 9.90111 3.73145 9.88965ZM12.1318 3.86816C11.6546 3.391 10.8806 3.39111 10.4033 3.86816C9.92603 4.34552 9.92603 5.11945 10.4033 5.59668C10.8806 6.074 11.6546 6.07402 12.1318 5.59668C12.6089 5.11945 12.609 4.34546 12.1318 3.86816Z" fill="black"/>
</svg>
